<svg width="1200" height="630" viewBox="0 0 1200 630" fill="none" xmlns="http://www.w3.org/2000/svg">
	<!-- Background gradient -->
	<defs>
		<linearGradient id="bgGrad" x1="0%" y1="0%" x2="100%" y2="100%">
			<stop offset="0%" style="stop-color:#09090b;stop-opacity:1" />
			<stop offset="50%" style="stop-color:#18181b;stop-opacity:1" />
			<stop offset="100%" style="stop-color:#09090b;stop-opacity:1" />
		</linearGradient>
		<linearGradient id="accentGrad" x1="0%" y1="0%" x2="100%" y2="0%">
			<stop offset="0%" style="stop-color:#10b981;stop-opacity:1" />
			<stop offset="100%" style="stop-color:#8b5cf6;stop-opacity:1" />
		</linearGradient>
		<linearGradient id="textGrad" x1="0%" y1="0%" x2="100%" y2="0%">
			<stop offset="0%" style="stop-color:#34d399;stop-opacity:1" />
			<stop offset="100%" style="stop-color:#a78bfa;stop-opacity:1" />
		</linearGradient>
	</defs>

	<!-- Background -->
	<rect width="1200" height="630" fill="url(#bgGrad)" />

	<!-- Decorative elements -->
	<circle cx="100" cy="100" r="150" fill="#10b981" opacity="0.1" />
	<circle cx="1100" cy="530" r="150" fill="#8b5cf6" opacity="0.1" />

	<!-- Accent line -->
	<rect x="0" y="0" width="1200" height="8" fill="url(#accentGrad)" />

	<!-- Logo/Icon -->
	<g transform="translate(212, 50) scale(-1, 1)">
		<svg xmlns="http://www.w3.org/2000/svg" xmlns:xlink="http://www.w3.org/1999/xlink"
			width="212" height="267" viewBox="0 0 512 467">
			<path fill="#3AD0A5" transform="scale(0.860504 0.861624)"
				d="M176.226 122.174C179.366 120.463 182.151 118.838 185.122 116.831C193.456 111.204 202.432 105.796 211.461 101.318C247.544 83.4236 288.333 77.2969 328.083 83.8009C336.554 85.2197 344.794 87.3852 353.024 89.8132C376.789 96.8244 397.868 108.561 417.404 123.664C442.685 143.207 462.558 165.649 477.899 193.843C484.162 205.353 489.347 218.18 493.091 230.714C495.036 237.226 496.275 244.339 498.78 250.635C502.117 252.862 505.994 254.827 509.498 256.865C513.573 259.257 517.515 261.868 521.308 264.686C586.17 312.906 601.554 399.225 556.152 466.268C538.086 492.946 510.846 512.551 480.37 522.43C476.565 523.664 473.082 524.794 469.132 525.58C439.579 531.632 408.885 528.6 381.088 516.881C364.492 509.763 345.132 497.112 332.282 484.408C323.698 475.921 312.221 462.378 309.061 450.575C307.252 442.073 310.188 431.819 314.97 424.855C318.9 419.132 324.506 415.343 330.741 412.635C335.206 411.19 337.107 411.068 341.867 410.872C364.926 412.14 366.891 428.077 382.472 441.053C387.56 445.229 393.37 449.741 399.163 452.877C439.225 474.566 488.494 460.201 510.134 419.941C520.001 401.582 522.579 379.198 516.7 358.755C512.433 344.306 504.107 331.386 492.71 321.53C482.34 312.717 468.433 306.106 454.953 303.725C447.422 302.395 438.779 302.632 431.177 302.597C422.815 302.558 414.476 302.569 406.113 302.905C396.748 303.222 387.518 302.412 378.149 303.176C372.74 303.473 370.635 304.383 369.728 310.301C367.663 323.774 385.429 335.135 376.769 348.494C372.318 355.361 362.977 354.958 356.025 357.105C350.252 358.889 344.975 361.666 339.843 364.847C337.533 366.274 335.087 368.887 333.289 370.903C331.067 373.435 329.613 376.541 327.418 379.091C322.271 385.074 312.981 384.916 307.328 379.736C304.559 377.198 302.926 373.654 302.797 369.9C302.654 366.304 304.382 360.267 306.653 357.418C312.192 350.473 319.748 342.75 327.466 338.087C330.588 336.174 335.251 335.07 337.913 332.617C339.213 331.418 333.951 324.27 333.15 322.88C329.562 316.657 327.494 310.903 326.317 303.867C322.313 303.301 313.313 303.722 308.451 303.525C297.363 304.062 284.839 303.468 273.994 304.17C271.026 304.612 258.346 304.174 257.513 304.668C254.682 320.655 241.324 334.662 229.646 345.11C227.638 346.907 219.8 352.942 218.933 354.441C213.925 363.102 210.121 370.035 201.349 375.969C197.016 378.9 190.732 382.321 185.062 381.344C180.26 380.424 176.745 377.109 177.922 371.977C179.145 365.979 187.329 360.483 183.95 353.923C183.546 353.139 182.51 352.59 181.586 352.419C172.83 350.8 155.227 359.559 157.389 343.174C157.493 342.386 157.906 341.161 158.149 340.378C165.226 333.965 172.654 331.783 181.941 330.408L183.907 330.244C193.167 330.341 198.606 331.822 205.397 324.914C212.532 317.655 213.498 314.145 214.464 304.493L214.025 304.436C209.152 303.823 202.997 304.165 197.741 303.64C186.087 302.475 174.534 300.408 163.348 296.873C161.017 296.136 155.613 294.174 153.414 294.259C149.937 294.393 144.678 296.791 141.164 297.852C135.434 299.581 130.103 301.446 124.218 302.777C101.935 307.815 77.0824 307.479 54.9636 301.77C52.0501 301.018 48.3319 299.27 45.4777 298.248C36.8822 295.172 29.5478 290.765 23.7766 283.465C17.032 274.876 13.9787 263.959 15.2893 253.118C16.7325 240.921 20.6086 229.022 23.9662 217.279C26.3063 209.095 28.38 201.561 31.7918 193.694C33.2442 190.344 34.1362 187.277 35.9852 184.013C40.026 177.043 45.3703 170.915 51.7268 165.964C55.4297 163.1 59.8537 160.409 64.0584 158.353C70.0934 155.402 76.497 153.056 81.8443 148.891C89.4201 142.989 95.6905 133.085 102.761 126.184C113.39 115.81 147.29 91.3003 162.411 93.6304C165.549 94.1138 168.017 95.8047 169.807 98.3998C172.781 102.713 174.808 116.317 176.226 122.174Z" />
			<path fill="#219C92" transform="scale(0.860504 0.861624)"
				d="M312.735 303.313C312.728 297.199 312.771 292.692 314.225 287.015C320.816 261.28 348.492 246.718 373.814 249.498C375.192 249.649 376.844 249.586 378.275 249.691C375.605 250.217 372.965 250.717 370.229 251.174C348.888 254.732 328.646 272.01 326.754 294.385C326.494 297.466 326.456 300.763 326.317 303.867C322.313 303.301 313.313 303.722 308.451 303.525C310.17 303.217 310.993 303.276 312.735 303.313Z" />
			<path fill="#219C92" transform="scale(0.860504 0.861624)"
				d="M231.81 252.458C234.823 253.553 237.866 254.708 240.805 256.049C257.864 263.834 271.42 279.902 271.8 299.237C271.831 300.836 271.586 301.938 271.817 303.584C272.494 304.196 272.862 304.029 273.994 304.17C271.026 304.612 258.346 304.174 257.513 304.668C257.411 303.878 257.763 299.467 257.811 298.312C257.962 294.688 257.613 292.036 256.916 288.463C254.234 274.703 243.381 260.136 231.81 252.458Z" />
			<path fill="#FEFEFE" transform="scale(0.860504 0.861624)"
				d="M284.16 113.99C317.538 112.342 353.492 121.775 382.547 138.12C390.868 142.801 421.164 161.51 423.504 170.657C424.255 173.59 423.613 176.707 421.973 179.227C420.33 181.754 417.726 183.632 414.748 184.203C412.663 184.603 410.272 184.413 408.334 183.51C404.279 181.619 400.574 177.3 397.092 174.438C393.74 171.706 390.276 169.115 386.709 166.671C362.736 149.91 334.859 139.584 305.75 136.682C290.74 135.173 277.156 135.939 262.313 138.277C254.94 139.438 245.21 144.342 238.975 139.067C236.745 137.189 235.365 134.493 235.146 131.587C234.913 128.761 235.693 125.921 237.583 123.774C243.846 116.662 274.577 114.463 284.16 113.99Z" />
			<path fill="#FEFEFE" transform="scale(0.860504 0.861624)"
				d="M277.063 159.003C315.863 156.58 356.558 169.533 385.97 196.27C387.038 197.563 387.771 199.054 388.134 200.671C390.082 209.337 382.184 216.55 373.886 213.779C370.013 212.486 365.519 207.565 361.951 205.215C359.458 203.574 356.93 201.789 354.323 200.125C350.267 197.378 344.347 194.345 339.924 192.306C318.448 182.355 294.588 178.706 271.118 181.781C267.2 182.244 263.312 182.937 259.474 183.855C254.726 184.996 249.905 186.597 244.997 186.689C235.942 186.86 231.758 175.158 237.473 168.831C241.142 164.768 247.825 163.65 252.994 162.623C260.861 161.059 269.06 159.578 277.063 159.003Z" />
			<path fill="#FEFEFE" transform="scale(0.860504 0.861624)"
				d="M90.8016 186.158C106.678 184.098 121.221 195.289 123.292 211.161C125.363 227.032 114.18 241.579 98.3066 243.661C82.4175 245.745 67.8493 234.551 65.7759 218.664C63.7024 202.777 74.9096 188.22 90.8016 186.158Z" />
			<path fill="#219C92" transform="scale(0.860504 0.861624)"
				d="M83.1536 202.856C89.8482 202.252 95.7784 207.156 96.4404 213.844C97.1024 220.532 92.2488 226.503 85.5656 227.222C78.8001 227.951 72.7381 223.025 72.0679 216.256C71.3978 209.486 76.3766 203.468 83.1536 202.856Z" />
			<path fill="#FEFEFE" transform="scale(0.860504 0.861624)"
				d="M279.906 203.444C288.962 203.162 298.019 203.989 306.874 205.909C315.844 207.808 340.117 215.989 344.843 223.633C346.325 226.025 346.791 228.909 346.137 231.646C345.436 234.569 343.547 237.255 340.977 238.799C333.928 243.036 326.814 237.037 320.677 233.944C315.898 231.56 310.881 229.686 305.71 228.351C291.428 224.436 275.723 224.636 261.402 228.241C256.513 229.472 251.457 231.831 246.465 232.376C243.58 232.691 240.887 231.994 238.642 230.116C236.276 228.137 234.782 225.067 234.646 221.989C234.521 219.175 235.569 216.256 237.481 214.184C243.642 207.508 270.56 203.99 279.906 203.444Z" />
			<path fill="#FEFEFE" transform="scale(0.860504 0.861624)"
				d="M206.31 133.094C211.194 132.333 216.109 134.253 219.184 138.122C222.258 141.991 223.017 147.212 221.172 151.796C219.326 156.379 215.16 159.619 210.263 160.279C202.797 161.286 195.913 156.095 194.829 148.642C193.746 141.189 198.867 134.254 206.31 133.094Z" />
		</svg>
	</g>

	<!-- Main heading -->
	<text x="320" y="240" font-family="sans-serif" font-size="72" font-weight="bold" fill="#ffffff">
		Chameleon Vitae
	</text>

	<!-- Tagline -->
	<text x="320" y="310" font-family="sans-serif" font-size="42" font-weight="600"
		fill="url(#textGrad)">
		The CV That Adapts
	</text>

	<!-- Description -->
	<text x="320" y="380" font-family="sans-serif" font-size="32" fill="#a1a1aa">
		AI-Powered Resume Engineering
	</text>

	<!-- Stats -->
	<g transform="translate(320, 440)">
		<text x="0" y="0" font-family="sans-serif" font-size="28" font-weight="600" fill="#10b981">
			95% ATS Pass Rate
		</text>
		<text x="280" y="0" font-family="sans-serif" font-size="28" font-weight="600" fill="#8b5cf6">
			• 3x More Interviews
		</text>
	</g>

	<!-- Call to action -->
	<rect x="320" y="500" width="280" height="60" rx="30" fill="url(#accentGrad)" />
	<text x="380" y="540" font-family="sans-serif" font-size="22" font-weight="600" fill="#ffffff">
		Get Started Free
	</text>

	<!-- URL -->
	<text x="1000" y="600" font-family="monospace" font-size="20" fill="#71717a" text-anchor="end">
		chameleon-vitae.vercel.app
	</text>
</svg>
